HIERARCHY
ROOT Hips
{
	OFFSET 0.0000 0.0000 0.0000
	CHANNELS 6 Xposition Yposition Zposition Zrotation Xrotation Yrotation
	JOINT Ab
	{
		OFFSET -0.0000 8.1305 -0.0000
		CHANNELS 3 Zrotation Xrotation Yrotation
		JOINT Chest
		{
			OFFSET -0.0000 26.2902 -0.0000
			CHANNELS 3 Zrotation Xrotation Yrotation
			JOINT Neck
			{
				OFFSET -0.0000 26.2902 0.0000
				CHANNELS 3 Zrotation Xrotation Yrotation
				JOINT Head
				{
					OFFSET -0.0000 10.8167 0.0000
					CHANNELS 3 Zrotation Xrotation Yrotation
					End Site
					{
						OFFSET -0.0000 16.7167 0.0000
					}
				}
			}
			JOINT LeftCollar
			{
				OFFSET -0.0000 26.2902 0.0000
				CHANNELS 3 Zrotation Xrotation Yrotation
				JOINT LeftShoulder
				{
					OFFSET 19.6667 -0.0000 0.0000
					CHANNELS 3 Zrotation Xrotation Yrotation
					JOINT LeftElbow
					{
						OFFSET 27.2190 0.0000 0.0000
						CHANNELS 3 Zrotation Xrotation Yrotation
						JOINT LeftWrist
						{
							OFFSET 30.7431 0.0000 0.0000
							CHANNELS 3 Zrotation Xrotation Yrotation
							End Site
							{
								OFFSET 0.0000 -14.7500 0.0000
							}
						}
					}
				}
			}
			JOINT RightCollar
			{
				OFFSET -0.0000 26.2902 0.0000
				CHANNELS 3 Zrotation Xrotation Yrotation
				JOINT RightShoulder
				{
					OFFSET -19.6667 0.0000 0.0000
					CHANNELS 3 Zrotation Xrotation Yrotation
					JOINT RightElbow
					{
						OFFSET -27.2190 0.0000 0.0000
						CHANNELS 3 Zrotation Xrotation Yrotation
						JOINT RightWrist
						{
							OFFSET -30.7431 0.0000 0.0000
							CHANNELS 3 Zrotation Xrotation Yrotation
							End Site
							{
								OFFSET -0.0000 -14.7500 0.0000
							}
						}
					}
				}
			}
		}
	}
	JOINT LeftHip
	{
		OFFSET 11.8000 0.0000 0.0000
		CHANNELS 3 Zrotation Xrotation Yrotation
		JOINT LeftKnee
		{
			OFFSET -0.0000 -39.7832 0.0000
			CHANNELS 3 Zrotation Xrotation Yrotation
			JOINT LeftAnkle
			{
				OFFSET -0.0000 -41.7317 0.0000
				CHANNELS 3 Zrotation Xrotation Yrotation
				End Site
				{
					OFFSET -0.0000 -4.9167 16.7167
				}
			}
		}
	}
	JOINT RightHip
	{
		OFFSET -11.8000 0.0000 0.0000
		CHANNELS 3 Zrotation Xrotation Yrotation
		JOINT RightKnee
		{
			OFFSET -0.0000 -39.7832 0.0000
			CHANNELS 3 Zrotation Xrotation Yrotation
			JOINT RightAnkle
			{
				OFFSET -0.0000 -41.7317 0.0000
				CHANNELS 3 Zrotation Xrotation Yrotation
				End Site
				{
					OFFSET -0.0000 -4.9167 16.7167
				}
			}
		}
	}
}
MOTION
Frames: 17
Frame Time: 0.010000
-15.3944 96.7557 177.3340 358.7628 358.7103 178.0258 357.9866 348.4802 0.5629 2.5696 9.0020 0.5634 359.1528 356.8579 359.2351 356.4909 3.1763 359.3570 338.7615 357.5314 13.2679 319.4225 58.1755 339.4542 7.9782 357.7217 328.3021 84.1795 357.5765 345.3086 27.9848 355.9397 343.7854 44.4240 46.8737 4.1635 341.9141 355.0128 30.6015 271.6389 355.3958 10.5423 357.5097 3.9392 358.5568 357.3673 8.4970 0.0818 355.3248 349.6693 21.0812 358.9738 8.3163 8.9966 5.7315 4.4777 6.6191 351.3650 343.3461 319.7226 
-15.4228 96.7505 177.3360 358.7661 358.6758 178.0333 357.9832 348.4812 0.5598 2.5707 8.9963 0.5593 359.1312 356.8309 359.2429 356.5112 3.2314 359.3626 338.7625 357.5105 13.2589 319.3476 58.1672 339.5205 8.0455 357.7000 328.2804 84.1391 357.5875 345.3012 27.9842 355.9197 343.7851 44.4213 46.8806 4.1699 341.8596 354.9949 30.5858 271.6477 355.3718 10.4984 357.4936 3.8572 358.5653 357.3689 8.5857 0.0299 355.3897 349.6334 21.1070 358.9518 8.2761 9.0216 5.7482 4.4867 6.6136 351.3855 343.3233 319.7035 
-15.4548 96.7474 177.3297 358.7691 358.6585 178.0479 357.9810 348.4906 0.5546 2.5660 8.9943 0.5541 359.1127 356.8472 359.2432 356.5429 3.2372 359.3609 338.7646 357.5091 13.2604 319.3276 58.1747 339.5288 8.0454 357.7274 328.2847 84.1612 357.5922 345.3271 28.0014 355.9328 343.7916 44.4116 46.8103 4.1394 341.8778 354.9844 30.7017 271.4953 355.6217 10.1274 357.4761 3.7956 358.5416 357.3619 8.6747 0.0382 355.4159 349.5938 21.1041 358.9308 8.2614 9.0076 5.7545 4.4925 6.6006 351.4079 343.3024 319.7214 
-15.4873 96.7420 177.3267 358.7766 358.6276 178.0599 357.9864 348.4851 0.5479 2.5532 8.9976 0.5518 359.1302 356.8675 359.2472 356.5341 3.2395 359.3672 338.7731 357.4912 13.2750 319.3475 58.2086 339.4830 8.0602 357.7051 328.2904 84.4055 357.6202 345.4598 27.9982 355.9197 343.7908 44.4221 46.8217 4.1348 341.8396 354.9715 30.7113 271.4820 355.6643 9.9960 357.4662 3.7199 358.5251 357.3510 8.7627 0.0032 355.4301 349.5540 21.1392 358.9127 8.2307 8.9974 5.7667 4.5000 6.5815 351.3781 343.3140 319.7363 
-15.5198 96.7364 177.3256 358.7871 358.5967 178.0694 357.9917 348.4883 0.5465 2.5464 8.9946 0.5491 359.1437 356.8762 359.2529 356.5184 3.2518 359.3763 338.7717 357.4854 13.3017 319.4136 58.2431 339.3934 8.0475 357.7078 328.3183 84.4533 357.6084 345.5070 27.9960 355.9259 343.7939 44.4426 46.8118 4.1119 341.8477 354.9721 30.7126 271.4964 355.6533 10.0215 357.4604 3.6427 358.5135 357.3363 8.8517 359.9864 355.4511 349.5224 21.1620 358.8999 8.1957 8.9624 5.7735 4.5137 6.5971 351.3752 343.2926 319.7437 
-15.5577 96.7320 177.3223 358.7883 358.5724 178.0752 357.9932 348.4989 0.5462 2.5397 8.9912 0.5472 359.1241 356.8919 359.2592 356.5427 3.2513 359.3811 338.7651 357.4899 13.3249 319.4621 58.2615 339.3296 8.0360 357.7159 328.3523 84.2109 357.5873 345.3852 27.9977 355.9469 343.7958 44.4420 46.7925 4.1063 341.8524 354.9828 30.7134 271.5069 355.6346 10.0345 357.4387 3.5724 358.4883 357.3239 8.9398 359.9888 355.4708 349.4809 21.1813 358.8710 8.1666 8.9273 5.7835 4.5301 6.6156 351.4036 343.2607 319.7438 
-15.5996 96.7272 177.3151 358.7877 358.5526 178.0751 357.9980 348.5056 0.5475 2.5277 9.0006 0.5509 359.0894 356.8961 359.2623 356.5880 3.2630 359.3830 338.7596 357.4977 13.3394 319.4909 58.2721 339.2804 8.0554 357.6985 328.3734 83.9708 357.6128 345.2998 28.0022 355.9526 343.8054 44.4409 46.7727 4.0941 341.8484 354.9853 30.7166 271.4908 355.6160 10.0484 357.4106 3.5141 358.4612 357.3141 9.0209 359.9787 355.5526 349.4497 21.2167 358.8349 8.1438 8.9060 5.7978 4.5462 6.6267 351.4568 343.2290 319.7383 
-15.6430 96.7209 177.3106 358.7941 358.5266 178.0775 358.0123 348.5126 0.5519 2.5104 9.0115 0.5552 359.0769 356.8798 359.2598 356.6019 3.2927 359.3839 338.7631 357.4864 13.3387 319.4630 58.2793 339.2877 8.1144 357.6893 328.3585 84.0773 357.6032 345.3996 28.0043 355.9409 343.8077 44.4435 46.7828 4.0864 341.8271 354.9597 30.7206 271.5362 355.5394 9.8510 357.3878 3.4474 358.4369 357.3065 9.1036 359.9833 355.6333 349.4307 21.2291 358.8082 8.1122 8.8979 5.8100 4.5618 6.6018 351.5335 343.1815 319.7629 
-15.6903 96.7149 177.3075 358.7951 358.4971 178.0756 358.0339 348.5122 0.5530 2.4761 9.0366 0.5554 359.0609 356.8705 359.2668 356.6246 3.3002 359.3910 338.7684 357.5048 13.3522 319.4784 58.2550 339.2486 8.0801 357.7035 328.3111 84.4545 357.6600 345.6285 28.0170 355.9371 343.8132 44.4271 46.7965 4.0783 341.8391 354.9468 30.7281 271.6023 355.5607 9.9519 357.3572 3.3703 358.4248 357.3023 9.1984 359.9528 355.6430 349.3944 21.2743 358.7689 8.0679 8.8859 5.8293 4.5949 6.5974 351.4857 343.1891 319.7950 
-15.7363 96.7093 177.2999 358.8026 358.4748 178.0677 358.0349 348.5036 0.5624 2.4764 9.0848 0.5662 359.0797 356.8782 359.2795 356.5944 3.2855 359.4004 338.7645 357.4882 13.3485 319.4615 58.2410 339.2500 8.1370 357.6810 328.3036 84.3805 357.6315 345.5851 28.0174 355.9583 343.8302 44.4045 46.7392 4.0899 341.8682 354.9886 30.7498 271.6285 355.5500 9.9647 357.3358 3.3137 358.3904 357.2891 9.2732 359.9483 355.7367 349.3579 21.3080 358.7447 8.0288 8.8331 5.8309 4.6347 6.6287 351.4954 343.1637 319.8148 
-15.7859 96.7043 177.2887 358.8031 358.4590 178.0497 358.0388 348.5090 0.5735 2.4686 9.1132 0.5746 359.0784 356.9105 359.2875 356.5972 3.2542 359.4106 338.7615 357.4680 13.3822 319.5386 58.3015 339.1506 8.1710 357.6857 328.3201 84.3110 357.6052 345.6080 28.0125 355.9459 343.8496 44.4185 46.7588 4.0692 341.8435 354.9756 30.7300 271.4531 355.5772 10.0255 357.3020 3.2573 358.3663 357.2798 9.3638 359.9544 355.7672 349.2996 21.3412 358.7034 8.0014 8.8063 5.8456 4.6667 6.6577 351.5462 343.1157 319.8165 
-15.8365 96.6996 177.2802 358.8063 358.4329 178.0453 358.0338 348.5104 0.5809 2.4732 9.1337 0.5809 359.0772 356.9522 359.2925 356.5964 3.2132 359.4138 338.7400 357.4759 13.4042 319.6319 58.3308 339.0561 8.1364 357.6866 328.3140 84.2970 357.6177 345.6159 28.0069 355.9652 343.8702 44.4505 46.7231 4.0197 341.8695 354.9686 30.7508 271.4300 355.6046 10.0067 357.2722 3.1791 358.3482 357.2685 9.4746 359.9454 355.7856 349.2568 21.3617 358.6717 7.9415 8.6295 5.8441 4.7558 6.7790 351.5790 343.0628 319.8534 
-15.8886 96.6945 177.2698 358.8091 358.4044 178.0333 358.0394 348.5171 0.5863 2.4587 9.1378 0.5906 359.0981 356.9787 359.3084 356.5783 3.2164 359.4286 338.7417 357.4762 13.4078 319.6108 58.3492 339.0697 8.1881 357.6701 328.2886 84.1995 357.6127 345.6714 28.0122 355.9586 343.8838 44.4591 46.7305 3.9955 341.8469 354.9550 30.7257 271.5214 355.5464 9.9802 357.2411 3.1057 358.3397 357.2581 9.5764 359.9139 355.8331 349.1991 21.4121 358.6369 7.8840 8.5468 5.8487 4.8302 6.8505 351.6034 343.0154 319.8634 
-15.9414 96.6884 177.2576 358.8181 358.3782 178.0185 358.0414 348.5235 0.5975 2.4596 9.1505 0.6004 359.1544 356.9995 359.3147 356.4724 3.2491 359.4377 338.7336 357.4740 13.4047 319.5681 58.3311 339.1184 8.2021 357.6680 328.2641 84.1032 357.5900 345.6510 28.0123 355.9524 343.8921 44.4491 46.7708 3.9871 341.8158 354.9503 30.7178 271.5787 355.5350 9.7958 357.2178 3.0373 358.3333 357.2433 9.6747 359.8966 355.8744 349.1400 21.4345 358.6066 7.8386 8.5212 5.8580 4.8778 6.8694 351.6694 342.9581 319.8752 
-15.9971 96.6819 177.2422 358.8307 358.3612 178.0044 358.0344 348.5292 0.6145 2.4757 9.1850 0.6163 359.1500 357.0024 359.3147 356.4454 3.2946 359.4405 338.7211 357.4806 13.3821 319.5091 58.2895 339.1843 8.1896 357.6615 328.2236 84.1523 357.5992 345.6775 28.0160 355.9663 343.9023 44.4303 46.7466 3.9728 341.8552 354.9605 30.7397 271.5438 355.5552 9.8465 357.1953 2.9892 358.2948 357.2220 9.7533 359.9311 355.9604 349.1119 21.4503 358.5771 7.8012 8.4818 5.8692 4.9335 6.9013 351.7126 342.9045 319.8840 
-16.0569 96.6753 177.2266 358.8442 358.3455 177.9927 358.0291 348.5356 0.6327 2.4963 9.2255 0.6319 359.1527 357.0182 359.3123 356.4253 3.3122 359.4396 338.7277 357.4847 13.3177 319.2982 58.2253 339.3905 8.2433 357.6311 328.1592 84.1507 357.5969 345.6593 28.0112 355.9711 343.8967 44.4015 46.7166 3.9957 341.8558 354.9814 30.7203 271.5896 355.5123 9.9267 357.1732 2.9558 358.2132 357.1916 9.8010 0.0058 356.0637 349.1006 21.4654 358.5480 7.7468 8.3278 5.8685 5.0387 7.0438 351.7017 342.8554 319.8909 
-16.1202 96.6689 177.2070 358.8590 358.3325 177.9883 358.0472 348.5499 0.6419 2.4769 9.2429 0.6398 359.1637 357.0885 359.3095 356.4276 3.3037 359.4387 338.7378 357.4983 13.2944 319.2328 58.2213 339.4494 8.2394 357.6484 328.1419 84.2608 357.5640 345.7208 28.0252 355.9440 343.9085 44.4140 46.6902 3.9453 341.8241 354.9764 30.7563 271.5647 355.5718 9.8054 357.1489 2.9238 358.1936 357.1753 9.8626 0.0009 356.0254 349.0357 21.4895 358.5148 7.7090 8.2444 5.8790 5.1153 7.1114 351.7266 342.8019 319.9041 
